<?xml version="1.0" encoding="utf-8"?>
<!-- Generator: Adobe Illustrator 24.1.1, SVG Export Plug-In . SVG Version: 6.00 Build 0)  -->
<svg version="1.1" id="vector" xmlns="http://www.w3.org/2000/svg" xmlns:xlink="http://www.w3.org/1999/xlink" x="0px" y="0px"
	 viewBox="0 0 108 108" style="enable-background:new 0 0 108 108;" xml:space="preserve">
<style type="text/css">
	.st0{fill:#4285F4;}
	.st1{fill:#DB4437;}
	.st2{fill:#0F9D58;}
	.st3{fill:#F4B400;}
</style>
<path id="path" class="st0" d="M15.8,15.8h22.3L54,0l15.8,15.8h22.3l-9.6,9.6H65.8L54,13.7L42.2,25.4H25.4L15.8,15.8z"/>
<path id="path_1" class="st1" d="M92.2,15.8v22.3L108,54L92.2,69.8v22.3l-9.6-9.6V65.8L94.3,54L82.6,42.2V25.4L92.2,15.8"/>
<path id="path_2" class="st2" d="M15.8,92.2V69.8L0,54l15.8-15.8V15.8l9.6,9.6v16.8L13.7,54l11.8,11.8v16.8L15.8,92.2z"/>
<path id="path_3" class="st3" d="M92.2,92.2H69.8L54,108L38.2,92.2H15.8l9.6-9.6h16.8L54,94.3l11.8-11.8h16.8L92.2,92.2z"/>
<path id="path_8" class="st3" d="M74.2,74.2c-5,5.3-12.2,8.4-20.2,8.4s-15.1-3.1-20.2-8.4l6.7-6.7C43.9,70.8,48.7,73,54,73
	s10.1-2.2,13.4-5.5L74.2,74.2z"/>
<path id="path_9" class="st2" d="M33.8,74.2c-5.3-5-8.4-12.2-8.4-20.2s3.1-15.1,8.4-20.2l6.7,6.7C37.2,43.9,35,48.7,35,54
	s2.2,10.1,5.5,13.4L33.8,74.2z"/>
<path id="path_10" class="st0" d="M33.8,33.8c5-5.3,12.2-8.4,20.2-8.4s15.1,3.1,20.2,8.4l-6.7,6.7C64.1,37.2,59.3,35,54,35
	s-10.1,2.2-13.4,5.5L33.8,33.8z"/>
<path id="path_11" class="st1" d="M74.2,33.8c5.3,5,8.4,12.2,8.4,20.2s-3.1,15.1-8.4,20.2l-6.7-6.7C70.8,64.1,73,59.3,73,54
	s-2.2-10.1-5.5-13.4L74.2,33.8z"/>
</svg>
